<?xml version="1.0" standalone="no"?>
<svg xmlns:xlink="http://www.w3.org/1999/xlink" id="wave" style="transform:rotate(0deg); transition: 0.3s" viewBox="0 0 1440 490" version="1.1" xmlns="http://www.w3.org/2000/svg"><defs><linearGradient id="sw-gradient-0" x1="0" x2="0" y1="1" y2="0"><stop stop-color="rgba(248.432, 255, 255, 1)" offset="0%"/><stop stop-color="rgba(255, 255, 255, 1)" offset="100%"/></linearGradient></defs><path style="transform:translate(0, 0px); opacity:1" fill="url(#sw-gradient-0)" d="M0,343L60,326.7C120,310,240,278,360,269.5C480,261,600,278,720,285.8C840,294,960,294,1080,277.7C1200,261,1320,229,1440,196C1560,163,1680,131,1800,114.3C1920,98,2040,98,2160,89.8C2280,82,2400,65,2520,98C2640,131,2760,212,2880,204.2C3000,196,3120,98,3240,98C3360,98,3480,196,3600,212.3C3720,229,3840,163,3960,171.5C4080,180,4200,261,4320,285.8C4440,310,4560,278,4680,277.7C4800,278,4920,310,5040,326.7C5160,343,5280,343,5400,359.3C5520,376,5640,408,5760,400.2C5880,392,6000,343,6120,277.7C6240,212,6360,131,6480,114.3C6600,98,6720,147,6840,187.8C6960,229,7080,261,7200,261.3C7320,261,7440,229,7560,236.8C7680,245,7800,294,7920,294C8040,294,8160,245,8280,220.5C8400,196,8520,196,8580,196L8640,196L8640,490L8580,490C8520,490,8400,490,8280,490C8160,490,8040,490,7920,490C7800,490,7680,490,7560,490C7440,490,7320,490,7200,490C7080,490,6960,490,6840,490C6720,490,6600,490,6480,490C6360,490,6240,490,6120,490C6000,490,5880,490,5760,490C5640,490,5520,490,5400,490C5280,490,5160,490,5040,490C4920,490,4800,490,4680,490C4560,490,4440,490,4320,490C4200,490,4080,490,3960,490C3840,490,3720,490,3600,490C3480,490,3360,490,3240,490C3120,490,3000,490,2880,490C2760,490,2640,490,2520,490C2400,490,2280,490,2160,490C2040,490,1920,490,1800,490C1680,490,1560,490,1440,490C1320,490,1200,490,1080,490C960,490,840,490,720,490C600,490,480,490,360,490C240,490,120,490,60,490L0,490Z"/><defs><linearGradient id="sw-gradient-1" x1="0" x2="0" y1="1" y2="0"><stop stop-color="rgba(10, 255, 255, 1)" offset="0%"/><stop stop-color="rgba(48, 176, 176, 1)" offset="100%"/></linearGradient></defs><path style="transform:translate(0, 50px); opacity:0.9" fill="url(#sw-gradient-1)" d="M0,98L60,81.7C120,65,240,33,360,49C480,65,600,131,720,130.7C840,131,960,65,1080,57.2C1200,49,1320,98,1440,147C1560,196,1680,245,1800,220.5C1920,196,2040,98,2160,122.5C2280,147,2400,294,2520,367.5C2640,441,2760,441,2880,375.7C3000,310,3120,180,3240,179.7C3360,180,3480,310,3600,310.3C3720,310,3840,180,3960,155.2C4080,131,4200,212,4320,261.3C4440,310,4560,327,4680,351.2C4800,376,4920,408,5040,392C5160,376,5280,310,5400,261.3C5520,212,5640,180,5760,155.2C5880,131,6000,114,6120,114.3C6240,114,6360,131,6480,147C6600,163,6720,180,6840,228.7C6960,278,7080,359,7200,392C7320,425,7440,408,7560,334.8C7680,261,7800,131,7920,73.5C8040,16,8160,33,8280,106.2C8400,180,8520,310,8580,375.7L8640,441L8640,490L8580,490C8520,490,8400,490,8280,490C8160,490,8040,490,7920,490C7800,490,7680,490,7560,490C7440,490,7320,490,7200,490C7080,490,6960,490,6840,490C6720,490,6600,490,6480,490C6360,490,6240,490,6120,490C6000,490,5880,490,5760,490C5640,490,5520,490,5400,490C5280,490,5160,490,5040,490C4920,490,4800,490,4680,490C4560,490,4440,490,4320,490C4200,490,4080,490,3960,490C3840,490,3720,490,3600,490C3480,490,3360,490,3240,490C3120,490,3000,490,2880,490C2760,490,2640,490,2520,490C2400,490,2280,490,2160,490C2040,490,1920,490,1800,490C1680,490,1560,490,1440,490C1320,490,1200,490,1080,490C960,490,840,490,720,490C600,490,480,490,360,490C240,490,120,490,60,490L0,490Z"/></svg>